HIERARCHY
ROOT SpineBase
{
  OFFSET 0.000000 0.000000 0.000000
  CHANNELS 6 Xposition Yposition Zposition Zrotation Xrotation Yrotation
  JOINT SpineMid
  {
    OFFSET 0.000000 31.277770 0.000000
    CHANNELS 3 Zrotation Xrotation Yrotation
    JOINT SpineShoulder
    {
      OFFSET 0.037415 23.248393 -0.827634
      CHANNELS 3 Zrotation Xrotation Yrotation
      JOINT Neck
      {
        OFFSET 0.040795 7.697920 -0.605347
        CHANNELS 3 Zrotation Xrotation Yrotation
        JOINT Head
        {
          OFFSET -5.476837 12.621689 0.966851
          CHANNELS 3 Zrotation Xrotation Yrotation
          End Site
          {
            OFFSET 0 0 0
          }
        }
      }
      JOINT ShoulderLeft
      {
        OFFSET -16.469086 -5.376284 10.488084
        CHANNELS 3 Zrotation Xrotation Yrotation
        JOINT ElbowLeft
        {
          OFFSET -2.035895 -24.294973 0.585375
          CHANNELS 3 Zrotation Xrotation Yrotation
          JOINT WristLeft
          {
            OFFSET -2.824049 -24.227585 -1.246590
            CHANNELS 3 Zrotation Xrotation Yrotation
            JOINT HandLeft
            {
              OFFSET -5.008030 -11.179319 1.315461
              CHANNELS 3 Zrotation Xrotation Yrotation
              JOINT HandTipLeft
              {
                OFFSET -1.044075 -6.736398 -0.974189
                CHANNELS 3 Zrotation Xrotation Yrotation
                End Site
                {
                  OFFSET 0 0 0
                }
              }
              JOINT ThumbLeft
              {
                OFFSET -4.181765 2.490114 -2.328369
                CHANNELS 3 Zrotation Xrotation Yrotation
                End Site
                {
                  OFFSET 0 0 0
                }
              }
            }
          }
        }
      }
      JOINT ShoulderRight
      {
        OFFSET 13.243928 -2.462080 -8.259969
        CHANNELS 3 Zrotation Xrotation Yrotation
        JOINT ElbowRight
        {
          OFFSET 7.474013 -23.238345 -4.607706
          CHANNELS 3 Zrotation Xrotation Yrotation
          JOINT WristRight
          {
            OFFSET 2.450552 -23.263341 -6.301703
            CHANNELS 3 Zrotation Xrotation Yrotation
            JOINT HandRight
            {
              OFFSET 0.248954 -7.505267 -0.115067
              CHANNELS 3 Zrotation Xrotation Yrotation
              JOINT HandTipRight
              {
                OFFSET -0.088604 -7.992368 -0.900610
                CHANNELS 3 Zrotation Xrotation Yrotation
                End Site
                {
                  OFFSET 0 0 0
                }
              }
              JOINT ThumbRight
              {
                OFFSET -3.366842 -0.440444 -1.271482
                CHANNELS 3 Zrotation Xrotation Yrotation
                End Site
                {
                  OFFSET 0 0 0
                }
              }
            }
          }
        }
      }
    }
  }
  JOINT HipLeft
  {
    OFFSET -6.500511 -0.165771 -0.209338
    CHANNELS 3 Zrotation Xrotation Yrotation
    JOINT KneeLeft
    {
      OFFSET 1.885768 -33.872881 5.173491
      CHANNELS 3 Zrotation Xrotation Yrotation
      JOINT AnkleLeft
      {
        OFFSET 11.725868 -37.770622 8.689916
        CHANNELS 3 Zrotation Xrotation Yrotation
        JOINT FootLeft
        {
          OFFSET -1.596331 -6.388777 -5.424730
          CHANNELS 3 Zrotation Xrotation Yrotation
          End Site
          {
            OFFSET 0 0 0
          }
        }
      }
    }
  }
  JOINT HipRight
  {
    OFFSET 7.017080 2.022527 -6.762763
    CHANNELS 3 Zrotation Xrotation Yrotation
    JOINT KneeRight
    {
      OFFSET 7.764647 -33.783018 -2.126903
      CHANNELS 3 Zrotation Xrotation Yrotation
      JOINT AnkleRight
      {
        OFFSET 5.692630 -37.643585 10.239021
        CHANNELS 3 Zrotation Xrotation Yrotation
        JOINT FootRight
        {
          OFFSET -1.407508 -6.875400 -3.810164
          CHANNELS 3 Zrotation Xrotation Yrotation
          End Site
          {
            OFFSET 0 0 0
          }
        }
      }
    }
  }
}
MOTION
Frames: 6
Frame Time: 0.033333
-23.895575 79.416707 323.350754 -0.000000 0.000000 25.864441 -0.000000 0.000000 -25.864441 -0.000000 0.000000 0.000000 -0.000000 0.000000 0.000000 0.000000 0.000000 0.000000 -0.000000 0.000000 0.000000 -0.000000 0.000000 0.000000 -0.000000 0.000000 0.000000 -0.000000 0.000000 0.000000 0.000000 0.000000 0.000000 0.000000 0.000000 0.000000 -0.000000 0.000000 0.000000 -0.000000 0.000000 0.000000 -0.000000 0.000000 0.000000 -0.000000 0.000000 0.000000 0.000000 0.000000 0.000000 0.000000 0.000000 0.000000 -0.000000 0.000000 -25.864441 -0.000000 0.000000 0.000000 -0.000000 0.000000 0.000000 0.000000 0.000000 0.000000 -0.000000 0.000000 -25.864441 -0.000000 0.000000 0.000000 -0.000000 0.000000 0.000000 0.000000 0.000000 0.000000
-23.812429 79.399722 323.404479 0.065357 -0.067560 25.811659 -0.029420 0.089277 -25.811597 -0.000000 0.000000 0.000000 -0.000000 0.000000 0.000000 0.000000 0.000000 0.000000 -0.000000 0.000000 0.000000 -0.000000 0.000000 0.000000 -2.904005 0.363260 -0.489925 3.549968 -1.663259 0.634283 0.000000 0.000000 0.000000 0.000000 0.000000 0.000000 -0.000000 0.000000 0.000000 -0.000000 0.000000 0.000000 -0.000000 0.000000 0.000000 0.061620 0.825958 -0.016531 0.000000 0.000000 0.000000 0.000000 0.000000 0.000000 -0.029420 0.089277 -25.811597 -0.000000 0.000000 0.000000 -0.000000 0.000000 0.000000 0.000000 0.000000 0.000000 -0.029420 0.089277 -25.811597 -0.000000 0.000000 0.000000 0.535438 1.044331 -0.513301 0.000000 0.000000 0.000000
-23.738938 79.385811 323.452091 0.116743 -0.124046 25.766202 -0.051213 0.162461 -25.766003 -0.000000 0.000000 0.000000 -0.000000 0.000000 0.000000 0.000000 0.000000 0.000000 0.579443 -0.651601 0.071881 -0.578663 0.652294 -0.065292 -5.077249 0.869873 -0.931261 6.233420 -2.877857 1.209867 0.000000 0.000000 0.000000 0.000000 0.000000 0.000000 -0.000000 0.000000 0.000000 -0.000000 0.000000 0.000000 0.171384 -1.265975 -0.042734 -0.131265 2.728369 0.024154 0.000000 0.000000 0.000000 0.000000 0.000000 0.000000 -0.907496 0.178236 -25.902203 0.777151 0.359870 0.136306 -0.000000 0.000000 0.000000 0.000000 0.000000 0.000000 -0.051213 0.162461 -25.766003 -0.000000 0.000000 0.000000 0.882402 1.761669 -0.857282 0.000000 0.000000 0.000000
-23.675103 79.374974 323.493591 0.154179 -0.169479 25.728158 -0.065324 0.219607 -25.727805 -0.000000 0.000000 0.000000 -0.935525 0.117417 0.124003 0.000000 0.000000 0.000000 0.780601 -0.801123 0.091437 -0.598633 -0.002777 0.002716 -6.664823 2.313972 -1.312793 7.994381 -3.641504 1.705196 0.000000 0.000000 0.000000 0.000000 0.000000 0.000000 -0.000000 0.000000 0.000000 0.665421 -0.458566 -0.226004 -0.742088 -1.082848 0.181109 0.019532 3.445731 0.036822 0.000000 0.000000 0.000000 0.000000 0.000000 0.000000 -1.165697 0.233679 -25.901655 0.995980 0.468026 0.174135 -0.000000 0.000000 0.000000 0.000000 0.000000 0.000000 -0.065324 0.219607 -25.727805 -0.000000 0.000000 0.000000 1.052912 2.187749 -1.042441 0.000000 0.000000 0.000000
-23.620923 79.367211 323.528979 0.177682 -0.203875 25.697604 -0.071705 0.260757 -25.697125 -0.000000 0.000000 0.000000 -1.153342 0.142034 0.152062 0.000000 0.000000 0.000000 0.922378 -0.833074 0.098792 -0.748556 -0.135891 0.017775 -7.281203 3.228375 -1.645989 8.798345 -3.945917 2.097050 0.000000 0.000000 0.000000 0.000000 0.000000 0.000000 -0.000000 0.000000 0.000000 0.775109 -0.563588 -0.265690 -1.333994 -1.003430 0.228003 0.320460 3.720026 0.049786 0.000000 0.000000 0.000000 0.000000 0.000000 0.000000 -1.292209 0.266867 -25.889015 1.452835 1.293020 0.505945 -0.358921 -0.762428 -0.321484 0.000000 0.000000 0.000000 -0.071705 0.260757 -25.697125 -0.000000 0.000000 0.000000 1.054040 2.343692 -1.075361 0.000000 0.000000 0.000000
-23.576399 79.362523 323.558253 0.187263 -0.227247 25.674602 -0.070319 0.285943 -25.674056 -0.000000 0.000000 0.000000 -1.323954 0.159502 0.173327 0.000000 0.000000 0.000000 1.004679 -0.747496 0.093456 -0.873520 -0.335220 0.038858 -7.080712 4.190079 -1.958053 8.626297 -3.773992 2.360097 0.000000 0.000000 0.000000 0.000000 0.000000 0.000000 -0.000000 0.000000 0.000000 0.830534 -0.645495 -0.288521 -2.103669 -0.694522 0.272748 0.772471 3.547154 0.063161 0.000000 0.000000 0.000000 0.000000 0.000000 0.000000 -1.287381 0.278038 -25.864798 1.383552 1.352192 0.507265 -0.299078 -0.811484 -0.322591 0.000000 0.000000 0.000000 -0.070319 0.285943 -25.674056 -0.000000 0.000000 0.000000 0.888214 2.237933 -0.958903 0.000000 0.000000 0.000000
